# xmcd
#
# Track frame offsets:
#	183
#	14163
#	27148
#	39853
#	52790
#	67065
#	80455
#	95138
#	108260
#	121670
#	134243
#	147905
#	160765
#	173505
#	188923
#	202660
#	214588
#	226643
#	237945
#	250473
#	263783
#
# Disc length: 3672 seconds
#
# Revision: 1
# Processed by: cddbd v1.5.1PL0 Copyright (c) Steve Scherf et al.
# Submitted via: EasyCDDAExtractor 6.2.0.3
#
DISCID=180e5615
DTITLE=Various Artist - Carolina Blues
DYEAR=1900
DGENRE=Blues
TTITLE0=Carl Martin - Knox County Stomp
TTITLE1=Carl Martin - Vine Street Drag
TTITLE2=Carl Martin - You Can Go Your Way
TTITLE3=Carl Martin - Kid Man Blues
TTITLE4=Carl Martin - Farewell to You Baby
TTITLE5=Carl Martin - You Can't Play Me Cheap
TTITLE6=Carl Martin - Badly Mistreated Man
TTITLE7=Carl Martin - Good Morning Judge
TTITLE8=Carl Martin - Crow Jane
TTITLE9=Carl Martin - Old Time Blues
TTITLE10=Carl Martin - That New Kind of Stuff
TTITLE11=Carl Martin - Joe Louis Blues
TTITLE12=Carl Martin - Let's Have a New Deal
TTITLE13=Carl Martin - I'm Gonna Have My Fun
TTITLE14=Carl Martin - High Water Flood Blues
TTITLE15=Brownie McGhee - Me and my Dog Blues
TTITLE16=Brownie McGhee - Picking My Potatoes
TTITLE17=Brownie McGhee - Poison Woman Blues
TTITLE18=Brownie McGhee - Money Spending Woman
TTITLE19=Brownie McGhee - Try Me One More Time
TTITLE20=Brownie McGhee - Double Trouble
EXTD=
EXTT0=
EXTT1=
EXTT2=
EXTT3=
EXTT4=
EXTT5=
EXTT6=
EXTT7=
EXTT8=
EXTT9=
EXTT10=
EXTT11=
EXTT12=
EXTT13=
EXTT14=
EXTT15=
EXTT16=
EXTT17=
EXTT18=
EXTT19=
EXTT20=
PLAYORDER=
